<svg width="960" height="960" viewBox="0 0 960 960" fill="none" xmlns="http://www.w3.org/2000/svg">
<g clip-path="url(#clip0_245_123)">
<path fill-rule="evenodd" clip-rule="evenodd" d="M625.335 345.508C621.278 314.102 613.225 284.906 591.325 271.362L590.052 271.059C583.24 299.862 572.28 327.645 559.069 354.45L560.351 355.075C562.335 366.556 564.825 379.046 567.315 391.536C569.806 404.024 572.296 416.512 574.278 427.99C576.036 438.122 578.771 449.799 586.178 453.381C590.68 455.561 595.866 453.906 599.863 450.404C603.86 446.902 606.847 441.745 609.491 436.477C622.835 409.895 629.392 376.914 625.335 345.508ZM600.126 298.139C599.777 297.379 598.878 297.046 598.118 297.395C597.358 297.744 597.025 298.643 597.374 299.403C617.521 343.277 616.362 396.387 594.319 439.341C593.937 440.085 594.231 440.997 594.975 441.379C595.719 441.761 596.631 441.467 597.013 440.723C619.48 396.943 620.661 342.857 600.126 298.139Z" fill="url(#paint0_linear_245_123)"/>
<path fill-rule="evenodd" clip-rule="evenodd" d="M486.127 423.271C488.08 433.261 490.507 445.672 501.86 448.376C519.147 452.483 529.138 420.582 533.799 399.238C535.144 393.092 536.044 387.824 536.544 384.544C540.046 360.616 542.65 265.953 506.076 270.01C477.839 281.182 477.156 346.792 478.656 373.392C479.456 384.261 480.899 395.06 482.756 405.777C483.603 410.642 484.541 415.496 485.541 420.33C485.738 421.277 485.93 422.262 486.127 423.271ZM520.872 292.077C520.618 291.28 519.766 290.841 518.969 291.095C518.173 291.349 517.733 292.201 517.987 292.997C532.312 337.905 530.31 386.429 512.336 430.005C512.017 430.778 512.385 431.663 513.158 431.982C513.931 432.301 514.816 431.932 515.135 431.159C533.382 386.924 535.414 337.665 520.872 292.077Z" fill="url(#paint1_linear_245_123)"/>
<path fill-rule="evenodd" clip-rule="evenodd" d="M457.011 119.367C499.993 131.46 545.32 132.595 588.853 122.667L589.993 122.415C579.72 75.2761 560.121 39.9331 535.083 39.9331C499.609 39.9331 472.437 81.2601 456.537 119.176L457.011 119.367ZM538.445 47.1736C537.762 46.6919 536.817 46.8555 536.336 47.5389C535.854 48.2224 536.018 49.1669 536.701 49.6486C547.229 57.0692 555.995 66.7166 562.376 77.9058C568.756 89.0951 572.595 101.552 573.62 114.392C573.687 115.225 574.416 115.847 575.25 115.78C576.083 115.714 576.705 114.984 576.638 114.151C575.578 100.868 571.607 87.9812 565.006 76.4059C558.405 64.8305 549.337 54.8502 538.445 47.1736Z" fill="url(#paint2_linear_245_123)"/>
<path d="M698.482 731.87L610.167 785.116L549.6 821.628L489.754 761.076L613.361 687.909C613.523 687.859 613.684 687.819 613.846 687.768L698.482 731.87Z" fill="url(#paint3_linear_245_123)"/>
<path d="M613.841 687.768C613.679 687.819 613.518 687.859 613.356 687.909L613.709 687.698L613.841 687.768Z" fill="url(#paint4_linear_245_123)"/>
<path d="M404.522 435C401.808 431.75 400.132 427.35 398.699 422.96C389.027 392.481 388.139 359.894 396.136 328.933C404.136 298.556 415.136 273.154 436.836 257.033L437.536 256.972C438.162 264.581 438.99 272.181 439.989 279.729C442.796 301.953 447.564 323.885 454.239 345.267C443.935 372.303 433.635 399.34 423.339 426.376C421.401 431.483 419.02 437.084 414.771 438.759C411.213 440.181 407.237 438.264 404.522 435Z" fill="url(#paint5_linear_245_123)"/>
<path d="M492.605 919.935C491.657 867.275 490.648 813.787 489.749 761.076L549.6 821.628L610.172 785.116L610.566 785.772L605.873 855.114L492.605 919.935Z" fill="#171717"/>
<path d="M489.749 761.076C490.649 813.787 491.657 867.276 492.605 919.935L380.756 852.974L373.338 792.594L373.538 792.094C387.949 798.119 402.401 804.053 416.974 809.745C423.029 811.764 428.074 816.81 434.13 815.8C452.094 797.837 471.047 779.873 489.13 761.687C489.23 761.596 489.322 761.495 489.412 761.405C489.544 761.283 489.634 761.182 489.685 761.132L489.749 761.076Z" fill="url(#paint6_linear_245_123)"/>
<path d="M485.2 765.527C485.153 765.568 485.109 765.612 485.069 765.658C485.027 765.69 484.989 765.727 484.958 765.769C484.922 765.794 484.892 765.825 484.867 765.86C484.685 766.032 484.695 766.011 484.867 765.86C484.894 765.827 484.925 765.797 484.958 765.769L485.069 765.658L485.2 765.527ZM373.54 792.1C347.04 781.009 320.658 769.625 293.854 758.938C293.965 758.938 296.195 757.232 296.397 757.051C296.306 757.101 295.62 757.606 293.854 758.938C301.927 752.227 311.009 746.172 319.971 739.228L320.295 738.148C322.273 739.001 324.302 739.732 326.37 740.338C340.77 744.567 394.925 747.867 385.65 704.643L387.104 704.33C421.013 722.96 455.326 742.135 489.749 761.077L489.689 761.138L489.415 761.411C487.458 763.318 486.227 764.519 485.521 765.211C486.521 764.242 488.221 762.577 489.134 761.689C471.049 779.875 452.096 797.839 434.134 815.802C428.079 816.812 423.034 811.766 416.978 809.747C402.4 804.058 387.951 798.124 373.54 792.1Z" fill="url(#paint7_linear_245_123)"/>
<path d="M373.338 792.594L380.756 852.974L492.605 919.935L605.868 855.114L610.561 785.772" stroke="#171717" stroke-width="3.053" stroke-linecap="round" stroke-linejoin="round"/>
<path d="M387.1 704.329C421.009 722.959 455.322 742.134 489.745 761.076" stroke="#171717" stroke-width="3.053" stroke-linecap="round" stroke-linejoin="round"/>
<path d="M296.407 757.04C296.407 757.043 296.405 757.045 296.404 757.047C296.402 757.049 296.399 757.05 296.397 757.05C296.197 757.231 293.965 758.937 293.854 758.937C301.927 752.226 311.009 746.171 319.971 739.227" stroke="#171717" stroke-width="3.053" stroke-linecap="round" stroke-linejoin="round"/>
<path d="M489.134 761.692C471.049 779.878 452.096 797.842 434.134 815.805C428.079 816.815 423.034 811.769 416.978 809.75C402.405 804.058 387.953 798.124 373.542 792.099C347.042 781.008 320.66 769.624 293.856 758.937C295.622 757.605 296.308 757.1 296.399 757.05" stroke="#171717" stroke-width="3.053" stroke-linecap="round" stroke-linejoin="round"/>
<path d="M489.749 761.076L489.689 761.137" stroke="#171717" stroke-width="3.053" stroke-linecap="round" stroke-linejoin="round"/>
<path d="M489.689 761.137C489.638 761.187 489.548 761.288 489.416 761.41" stroke="#171717" stroke-width="3.053" stroke-linecap="round" stroke-linejoin="round"/>
<path d="M489.416 761.41C489.326 761.5 489.235 761.601 489.134 761.692" stroke="#171717" stroke-width="3.053" stroke-linecap="round" stroke-linejoin="round"/>
<path d="M485.521 765.214C486.521 764.245 488.221 762.58 489.134 761.692" stroke="#171717" stroke-width="3.053" stroke-linecap="round" stroke-linejoin="round"/>
<path d="M484.865 765.86C484.893 765.828 484.923 765.797 484.956 765.769L485.067 765.658L485.198 765.527" stroke="#171717" stroke-width="3.053" stroke-linecap="round" stroke-linejoin="round"/>
<path d="M484.865 765.86C484.683 766.032 484.693 766.011 484.865 765.86V765.86Z" stroke="#171717" stroke-width="3.053" stroke-linecap="round" stroke-linejoin="round"/>
<path d="M492.605 919.935C491.657 867.275 490.648 813.787 489.749 761.076L489.689 761.137L489.416 761.41C487.459 763.317 486.227 764.518 485.521 765.21C485.4 765.331 485.289 765.432 485.198 765.523C485.152 765.564 485.108 765.608 485.067 765.654C485.025 765.686 484.988 765.723 484.956 765.765C484.921 765.79 484.89 765.821 484.865 765.856" stroke="#171717" stroke-width="3.053" stroke-linecap="round" stroke-linejoin="round"/>
<path d="M613.356 687.909L613.709 687.698L613.841 687.768L698.482 731.87L610.167 785.116L549.595 821.628L489.749 761.076L613.356 687.909Z" stroke="#171717" stroke-width="3.053" stroke-linecap="round" stroke-linejoin="round"/>
<path d="M436.837 257.042C415.137 273.158 404.137 298.56 396.137 328.942C388.14 359.903 389.028 392.49 398.7 422.969C400.133 427.359 401.809 431.759 404.523 435.009C407.237 438.259 411.214 440.186 414.767 438.773C419.016 437.098 421.397 431.497 423.335 426.39C433.629 399.354 443.929 372.318 454.235 345.281C454.244 345.239 454.257 345.199 454.275 345.16" stroke="#171717" stroke-width="3.028" stroke-linecap="round" stroke-linejoin="round"/>
<path d="M591.325 271.362C613.225 284.906 621.278 314.102 625.335 345.508C629.392 376.914 622.835 409.895 609.491 436.477C606.847 441.745 603.86 446.902 599.863 450.404C595.866 453.906 590.68 455.561 586.178 453.381C578.771 449.799 576.036 438.122 574.278 427.99C570.312 405.031 564.317 378.035 560.351 355.075" stroke="#171717" stroke-width="3.028" stroke-linecap="round" stroke-linejoin="round"/>
<path d="M533.8 399.238C535.142 393.092 536.04 387.824 536.545 384.544C540.045 360.616 542.651 265.953 506.077 270.01C477.84 281.182 477.154 346.79 478.657 373.392C479.457 384.261 480.898 395.06 482.757 405.777C483.604 410.642 484.543 415.496 485.542 420.33C487.682 430.654 489.357 445.399 501.861 448.376C519.147 452.483 529.138 420.582 533.8 399.238Z" stroke="#171717" stroke-width="3.028" stroke-linecap="round" stroke-linejoin="round"/>
<path d="M491.031 170.755C484.925 179.908 484.461 192.301 489.053 202.303C493.645 212.305 502.889 219.853 513.344 223.264C518.956 225.09 525.162 225.787 530.693 223.738C537.434 221.238 542.157 215.049 545.377 208.61C550.826 197.701 552.925 184.43 547.91 173.31C538.423 152.307 503.192 152.519 491.031 170.755Z" stroke="#171717" stroke-width="3.028" stroke-linecap="round" stroke-linejoin="round"/>
<path d="M613.265 594.468C613.257 594.477 613.25 594.487 613.245 594.498C613.074 594.798 611.56 597.142 608.28 602.127C617.807 587.727 635.972 584.699 650.101 590.754C672.301 600.846 677.35 630.113 668.267 651.306C658.256 671.328 635.367 681.44 613.841 687.768C613.679 687.819 613.518 687.859 613.356 687.909C613.346 687.909 613.326 687.92 613.316 687.92" stroke="#171717" stroke-width="3.028" stroke-linecap="round" stroke-linejoin="round"/>
<path d="M523.184 537.7C541.875 530.535 556.639 551.052 552.259 570.973C557.992 550.82 566.105 526.125 589.64 521.634C597.623 519.101 606.706 522.128 612.761 528.183C629.917 550.383 620.834 579.653 608.28 602.127C611.166 597.637 613.023 594.801 613.245 594.498" stroke="#171717" stroke-width="3.028" stroke-linecap="round" stroke-linejoin="round"/>
<path d="M385.539 704.117C385.58 704.289 385.62 704.47 385.65 704.642C394.925 747.866 340.771 744.566 326.37 740.337C324.302 739.732 322.273 739 320.295 738.147C294.005 726.824 277.464 695.176 282.238 667.16C284.952 651.225 295.458 636.279 310.879 630.466C299.788 621.444 291.109 609.807 289.322 595.315C288.498 588.838 288.972 582.262 290.717 575.971C292.462 569.679 295.443 563.799 299.485 558.671C316.117 538.144 348.785 535.631 368.141 553.595C378.768 563.465 385.005 578.179 383.824 592.722C396.509 562.002 421.578 527.336 459.312 531.372C468.264 532.331 473.441 532.705 480.112 538.772" stroke="#171717" stroke-width="3.028" stroke-linecap="round" stroke-linejoin="round"/>
<path d="M471.352 387.027C473.052 425.127 477.033 482.598 480.858 538.719C484.189 587.534 487.398 635.31 488.871 668.442" stroke="#171717" stroke-width="3.028" stroke-linecap="round" stroke-linejoin="round"/>
<path d="M539.715 390.639C537.596 428.283 530.158 483.213 523.184 537.7C516.574 589.331 510.367 640.568 509.484 676.283" stroke="#171717" stroke-width="3.028" stroke-linecap="round" stroke-linejoin="round"/>
<path d="M510.771 668.442C514.212 661.65 519.127 655.433 525.626 651.457C532.125 647.481 540.32 645.947 547.536 648.369C554.752 650.791 560.615 657.533 561.009 665.142" stroke="#171717" stroke-width="3.028" stroke-linecap="round" stroke-linejoin="round"/>
<path d="M492.928 682.207C492.47 677.448 490.829 672.88 488.155 668.916C482.695 660.641 473.279 654.848 463.318 654.687C448.564 654.444 434.627 666.565 432.818 681.208" stroke="#171717" stroke-width="3.028" stroke-linecap="round" stroke-linejoin="round"/>
<path d="M486.1 690.493C488.028 687.492 490.471 684.855 493.316 682.702C498.015 679.12 503.614 676.909 509.493 676.314C510.868 676.185 512.251 676.152 513.631 676.214C519.055 676.53 524.305 678.24 528.875 681.178C533.445 684.116 537.18 688.184 539.719 692.987" stroke="#171717" stroke-width="3.028" stroke-linecap="round" stroke-linejoin="round"/>
<path d="M280.139 570.015C286.274 558.5 280.764 542.332 268.866 536.953C276.203 526.407 271.409 509.634 259.611 504.553C247.813 499.472 232.323 507.48 229.679 520.053C221.131 512.753 206.979 513.292 199.009 521.214C191.039 529.136 190.409 543.285 197.657 551.883C188.544 551.318 179.279 557.283 176.433 565.962C173.587 574.641 177.765 585.187 185.99 589.173C194.215 593.159 205.377 589.658 209.474 581.493C208.415 589.759 218.406 595.945 226.6 594.431C233.594 593.139 236.662 588.285 242.364 585.086C249.146 581.286 247.733 582.644 255.322 582.21C265.354 581.641 274.891 579.9 280.139 570.015Z" stroke="#171717" stroke-width="3.028" stroke-linecap="round" stroke-linejoin="round"/>
<path d="M252.2 617.144C246.347 611.344 235.831 611.2 229.836 616.852C223.841 622.504 223.331 633 228.77 639.2C234.209 645.4 244.685 646.265 251.063 641.037C257.441 635.809 258.673 625.374 253.677 618.825" stroke="#171717" stroke-width="3.028" stroke-linecap="round" stroke-linejoin="round"/>
<path d="M197.061 829.541C194.069 830.667 191.394 832.498 189.261 834.879C187.772 836.542 186.663 838.51 186.012 840.645C185.36 842.78 185.181 845.031 185.487 847.242C186.799 855.225 195.114 860.351 203.127 861.401C217.418 863.268 232.435 854.501 237.827 841.126C237.527 845.738 240.683 850.098 244.8 852.197C248.917 854.296 253.772 854.448 258.334 853.741C274.309 851.269 287.984 837.841 290.749 821.911C292.112 814.059 290.477 804.916 283.988 800.304C289.397 803.614 297.117 801.604 300.912 796.52C304.707 791.436 304.717 784.096 301.699 778.526C298.681 772.956 293.01 769.1 286.899 767.374C280.788 765.648 266.069 759.29 250.013 772.43" stroke="#171717" stroke-width="3.028" stroke-linecap="round" stroke-linejoin="round"/>
<path d="M197.071 829.541C198.33 829.345 199.555 828.979 200.714 828.451C199.472 828.712 198.253 829.077 197.071 829.541V829.541Z" stroke="#171717" stroke-width="3.028" stroke-linecap="round" stroke-linejoin="round"/>
<path d="M197.071 829.541H197.061" stroke="#171717" stroke-width="3.028" stroke-linecap="round" stroke-linejoin="round"/>
<path d="M250.014 772.43C249.3 769.747 248.058 767.232 246.362 765.033C244.666 762.835 242.549 760.996 240.134 759.625C237.719 758.253 235.056 757.377 232.298 757.046C229.541 756.715 226.746 756.937 224.075 757.698C221.405 758.46 218.913 759.746 216.745 761.481C214.577 763.216 212.776 765.365 211.447 767.804C210.119 770.243 209.29 772.921 209.008 775.684C208.726 778.447 208.998 781.238 209.807 783.894C206.416 777.668 197.616 775.922 191.137 778.808C184.658 781.694 180.359 788.083 177.917 794.733C174.929 802.878 174.364 812.374 178.623 819.933C182.246 826.362 189.977 830.633 197.061 829.541" stroke="#171717" stroke-width="3.028" stroke-linecap="round" stroke-linejoin="round"/>
<path d="M693.4 581.207C697.194 584.184 702.624 584.567 707.155 582.922C711.686 581.277 715.411 577.846 718.236 573.93C720.759 570.418 722.707 565.887 721.193 561.84C720.053 558.762 717.086 556.653 713.947 555.694C710.759 554.899 707.468 554.596 704.188 554.794C706.425 552.274 707.997 549.235 708.76 545.954C709.523 542.672 709.454 539.251 708.558 536.003C706.59 529.584 700.558 524.457 693.844 524.134C687.13 523.811 680.391 528.734 679.18 535.334C678.613 533.829 677.642 532.508 676.375 531.517C675.108 530.526 673.593 529.901 671.995 529.712C668.771 529.383 665.533 530.182 662.831 531.973C659.267 534.172 656.476 537.428 654.849 541.287C653.221 545.146 652.837 549.416 653.75 553.504C654.663 557.591 656.828 561.292 659.944 564.092C663.059 566.891 666.97 568.65 671.131 569.122C666.953 570.888 664.924 576.196 666.246 580.522C667.568 584.848 671.666 588.01 676.116 588.898C680.566 589.786 689.218 589 693.4 581.207Z" stroke="#171717" stroke-width="3.028" stroke-linecap="round" stroke-linejoin="round"/>
<path d="M751.112 629.144C749.699 622.231 743.422 616.744 736.438 615.752C732.923 615.346 729.362 615.852 726.099 617.222C722.836 618.591 719.98 620.779 717.808 623.573C714.994 626.988 713.587 631.348 713.873 635.764C714.488 642.072 719.514 647.42 725.509 649.489C730.909 651.346 739.557 651.649 743.997 647.309C748.589 642.839 752.434 635.633 751.112 629.144Z" stroke="#171717" stroke-width="3.028" stroke-linecap="round" stroke-linejoin="round"/>
<path d="M746.752 677.878C739.352 675.93 730.852 680.916 728.94 688.323C723.934 684.123 716.54 682.51 710.623 685.306C704.706 688.102 701.258 695.771 704.013 701.695C705.9 705.762 710.159 708.346 714.549 709.214C718.939 710.082 723.49 709.456 727.88 708.568C726.79 710.492 726.177 712.65 726.092 714.86C726.006 717.07 726.452 719.268 727.391 721.27C728.33 723.273 729.734 725.021 731.488 726.369C733.241 727.717 735.292 728.626 737.468 729.019C739.645 729.411 741.883 729.277 743.997 728.627C746.111 727.977 748.039 726.83 749.618 725.282C751.198 723.734 752.384 721.83 753.076 719.73C753.769 717.63 753.949 715.394 753.6 713.21C755.708 714.745 758.227 715.615 760.833 715.706C763.439 715.798 766.013 715.108 768.223 713.725C772.523 710.808 774.45 704.672 772.223 699.979C770.79 696.952 767.934 695.256 764.776 694.52C762.535 694.005 759.776 694.247 758.216 692.249C756.45 689.988 756.561 686.355 754.855 683.832C752.958 680.937 750.081 678.824 746.752 677.878V677.878Z" stroke="#171717" stroke-width="3.028" stroke-linecap="round" stroke-linejoin="round"/>
<path d="M484.37 166.022C476.6 177.668 476.014 193.432 481.847 206.158C487.68 218.884 499.447 228.481 512.769 232.831C519.894 235.152 527.796 236.031 534.82 233.426C543.409 230.237 549.413 222.376 553.511 214.191C560.444 200.304 563.118 183.42 556.73 169.271C544.67 142.548 499.841 142.82 484.37 166.022Z" stroke="#171717" stroke-width="3.028" stroke-linecap="round" stroke-linejoin="round"/>
<path d="M534.669 399.319C536.364 396.442 538.043 393.549 539.705 390.639C546.505 378.781 553.026 366.721 559.071 354.45C572.282 327.645 583.242 299.862 590.054 271.059C593.008 258.672 595.118 246.099 596.371 233.426C599.994 196.146 597.401 156.243 589.993 122.414C579.72 75.2751 560.121 39.9321 535.083 39.9321C499.609 39.9321 472.432 81.2591 456.537 119.175C450.702 132.924 446.082 147.158 442.731 161.713C435.939 192.907 434.94 225.1 437.531 256.981C438.157 264.59 438.985 272.19 439.984 279.738C442.79 301.962 447.559 323.894 454.234 345.276C458.765 359.646 464.491 373.612 471.35 387.027C474.66 393.465 478.276 399.749 482.199 405.878" stroke="#171717" stroke-width="3.028" stroke-linecap="round" stroke-linejoin="round"/>
<path d="M457.011 119.366C499.993 131.459 545.319 132.594 588.853 122.666" stroke="#171717" stroke-width="3.028" stroke-linecap="round" stroke-linejoin="round"/>
<path d="M729.839 185.194L718.1 175.553" stroke="#171717" stroke-width="3.028" stroke-linecap="round" stroke-linejoin="round"/>
<path d="M717.554 188.918L730.389 171.83" stroke="#171717" stroke-width="3.028" stroke-linecap="round" stroke-linejoin="round"/>
<path d="M742.452 363.161L733.918 336.443" stroke="#171717" stroke-width="3.028" stroke-linecap="round" stroke-linejoin="round"/>
<path d="M726.175 355.586L747.656 342.95" stroke="#171717" stroke-width="3.028" stroke-linecap="round" stroke-linejoin="round"/>
<path d="M680.164 457.2L693.029 415.539" stroke="#171717" stroke-width="3.028" stroke-linecap="round" stroke-linejoin="round"/>
<path d="M714.559 476.552L787 423.891" stroke="#171717" stroke-width="3.028" stroke-linecap="round" stroke-linejoin="round"/>
<path d="M730.535 523.547L763.656 523.956" stroke="#171717" stroke-width="3.028" stroke-linecap="round" stroke-linejoin="round"/>
<path d="M294.9 491.155L197.977 375.487" stroke="#171717" stroke-width="3.028" stroke-linecap="round" stroke-linejoin="round"/>
<path d="M322.469 465.752L310.6 431.6" stroke="#171717" stroke-width="3.028" stroke-linecap="round" stroke-linejoin="round"/>
<path d="M211.221 486L172.75 482.826" stroke="#171717" stroke-width="3.028" stroke-linecap="round" stroke-linejoin="round"/>
<path d="M433.445 618.67C423.596 613.815 411.184 612.612 401.951 618.557C392.718 624.502 389.062 638.888 396.516 646.952C386.444 646.502 377.454 657.058 379.502 666.929C381.55 676.8 394.002 682.909 403.059 678.49" stroke="#171717" stroke-width="3.028" stroke-linecap="round" stroke-linejoin="round"/>
<path d="M557.149 614.826C561.563 607.826 572.067 605.608 578.932 610.232C585.797 614.856 587.693 625.422 582.863 632.144C587.43 631.074 592.225 631.582 596.466 633.587C600.706 635.592 604.142 638.975 606.213 643.183C608.284 647.392 608.868 652.178 607.869 656.761C606.87 661.344 604.347 665.453 600.712 668.418" stroke="#171717" stroke-width="3.028" stroke-linecap="round" stroke-linejoin="round"/>
<path fill-rule="evenodd" clip-rule="evenodd" d="M489.053 202.303C493.635 212.314 502.889 219.853 513.344 223.264C518.956 225.09 525.162 225.787 530.693 223.736C537.434 221.233 542.157 215.047 545.377 208.608C550.826 197.701 552.925 184.43 547.91 173.308C538.423 152.307 503.192 152.519 491.031 170.755C484.925 179.903 484.471 192.292 489.053 202.303ZM531.56 163.869C530.815 163.49 529.903 163.786 529.523 164.531C529.143 165.276 529.44 166.187 530.185 166.567C540.751 171.953 546.127 185.883 541.918 196.971C541.621 197.753 542.014 198.627 542.796 198.924C543.577 199.22 544.452 198.827 544.748 198.046C549.507 185.513 543.503 169.957 531.56 163.869Z" fill="#171717"/>
<path d="M446.3 85.7432L440.6 70.7832" stroke="#171717" stroke-width="3.028" stroke-linecap="round" stroke-linejoin="round"/>
<path d="M434.794 82.721L448.988 74.083" stroke="#171717" stroke-width="3.028" stroke-linecap="round" stroke-linejoin="round"/>
<path d="M393.582 75.7691L387.17 64.3691" stroke="#171717" stroke-width="3.028" stroke-linecap="round" stroke-linejoin="round"/>
<path d="M384.151 73.41L395.817 64.5" stroke="#171717" stroke-width="3.028" stroke-linecap="round" stroke-linejoin="round"/>
<path d="M395.884 451.735C389.865 445.796 385.08 438.725 381.805 430.929C378.53 423.133 376.829 414.767 376.8 406.311" stroke="#171717" stroke-width="3.028" stroke-linecap="round" stroke-linejoin="round"/>
<path d="M605.264 464.177C612.873 459.15 619.382 452.629 624.396 445.011C629.411 437.393 632.826 428.836 634.435 419.859" stroke="#171717" stroke-width="3.028" stroke-linecap="round" stroke-linejoin="round"/>
<path d="M501.723 618.587L509.195 538.767" stroke="#171717" stroke-width="3.028" stroke-linecap="round" stroke-linejoin="round"/>
<path d="M496.919 533.827L496.45 456.177" stroke="#171717" stroke-width="3.028" stroke-linecap="round" stroke-linejoin="round"/>
<path d="M259.712 302.98L251.874 290.871" stroke="#171717" stroke-width="3.028" stroke-linecap="round" stroke-linejoin="round"/>
<path d="M249.79 301.7L261.219 290.333" stroke="#171717" stroke-width="3.028" stroke-linecap="round" stroke-linejoin="round"/>
<path d="M322.469 337.694L311.786 334.124" stroke="#171717" stroke-width="3.028" stroke-linecap="round" stroke-linejoin="round"/>
<path d="M318.09 329.318L314.539 343.568" stroke="#171717" stroke-width="3.028" stroke-linecap="round" stroke-linejoin="round"/>
<path d="M261.091 377.843L272.491 372.851" stroke="#171717" stroke-width="3.028" stroke-linecap="round" stroke-linejoin="round"/>
<path d="M268.2 382.8L265.351 370.689" stroke="#171717" stroke-width="3.028" stroke-linecap="round" stroke-linejoin="round"/>
<path d="M389.507 138.9L393.807 123.018" stroke="#171717" stroke-width="3.809" stroke-linecap="round" stroke-linejoin="round"/>
<path d="M383.128 128.462L401.454 130.762" stroke="#171717" stroke-width="3.809" stroke-linecap="round" stroke-linejoin="round"/>
<path d="M644.293 108.38L650.853 116.09L660.628 114.997L655.665 123.688L659.862 132.966L650.234 130.627L643.053 137.455L642.066 127.319L633.43 122.26L642.449 118.335L644.293 108.38Z" fill="#171717"/>
<path d="M333.669 240.781L335.19 250.79L344.076 255.006L335.281 259.782L333.966 269.881L327.01 262.824L317.311 264.849L321.807 255.712L317.128 246.865L326.862 248.274L333.669 240.781Z" fill="#171717"/>
<g opacity="0.1">
<path d="M525.778 39.9581C504.178 49.9981 486.165 68.1411 472.978 87.7581C458.583 109.182 449.334 134.091 443.509 159.126C431.647 210.117 431.392 264.51 443.719 315.426C447.152 329.711 451.542 343.749 456.859 357.445C461.797 370.101 466.424 386.192 476.244 395.955C479.644 399.336 484.197 395.755 483.608 391.668C482.762 385.795 480.093 379.925 477.755 374.468C475.203 368.511 472.755 362.504 470.648 356.373C466.648 344.727 463.202 332.863 460.37 320.879C454.62 296.679 451.303 271.966 450.47 247.106C448.918 198.052 456.956 146.839 480.195 103.176C486.216 91.8621 493.123 80.6071 501.518 70.8991C509.981 61.3038 519.278 52.4773 529.3 44.5231C532.044 42.3071 528.547 38.6711 525.778 39.9581V39.9581Z" fill="#171717"/>
</g>
<g opacity="0.1">
<path d="M435.361 260.6C429.336 260.257 425.381 267.638 422.461 271.948C418.805 277.231 415.471 282.728 412.475 288.411C406.725 299.456 402.109 311.055 398.7 323.031C391.941 346.983 389.623 371.97 391.862 396.756C392.476 403.331 393.384 409.897 394.609 416.386C395.747 422.412 396.885 429.814 400.442 434.976C403.866 439.943 411.574 439.557 413.366 433.287C414.966 427.687 411.638 419.158 410.53 413.657C405.814 389.771 405.861 365.19 410.667 341.322C413.414 327.669 417.486 314.317 422.824 301.454C425.558 294.864 428.95 288.607 432.024 282.185C434.48 277.056 441.624 269.572 439.247 263.556C438.983 262.722 438.468 261.99 437.772 261.461C437.076 260.931 436.234 260.629 435.36 260.597L435.361 260.6Z" fill="#171717"/>
</g>
<g opacity="0.1">
<path d="M503.814 271.2C498.222 274.647 493.843 282.654 490.942 288.38C487.414 295.211 484.498 302.341 482.227 309.685C477.853 324.397 475.518 339.639 475.288 354.985C474.947 370.36 476.442 385.721 479.742 400.741C481.404 408.224 483.442 415.618 485.849 422.895C488.176 429.943 490.417 437.788 494.643 443.928C498.159 449.037 505.443 445.806 504.41 439.81C503.21 432.882 500.196 426.246 498.236 419.48C496.254 412.641 494.593 405.72 493.254 398.716C490.469 384.583 489.104 370.207 489.182 355.802C489.339 341.687 491.157 327.64 494.597 313.949C496.333 307.075 498.397 300.088 500.726 293.406C501.913 290.006 503.061 286.623 504.226 283.227C505.363 279.927 507.02 276.663 507.195 273.144C507.189 272.75 507.082 272.364 506.882 272.025C506.682 271.685 506.397 271.403 506.056 271.207C505.714 271.011 505.327 270.908 504.933 270.907C504.539 270.906 504.151 271.008 503.809 271.202L503.814 271.2Z" fill="#171717"/>
</g>
<g opacity="0.1">
<path d="M565.308 348.81L565.114 348.881C564.06 349.201 563.134 349.845 562.467 350.722C561.8 351.598 561.425 352.662 561.397 353.763C561.358 370.145 564.797 386.63 567.755 402.694C570.187 415.903 571.426 430.504 578.11 442.447C580.48 446.679 584.977 452.587 590.201 453.175C591.417 453.328 592.649 453.066 593.698 452.433C594.747 451.8 595.553 450.831 595.984 449.684C596.851 446.835 595.064 444.752 593.099 443.023C583.348 434.446 583.652 419.859 581.915 407.843C579.244 389.368 577.373 370.155 571.341 352.417C571.023 351.362 570.38 350.434 569.503 349.766C568.626 349.099 567.561 348.726 566.459 348.701C566.072 348.682 565.684 348.719 565.308 348.81V348.81Z" fill="#171717"/>
</g>
<g opacity="0.1">
<path d="M472.1 398.343C469.93 406.631 470.454 416.643 470.959 425.148C471.488 434.084 472.008 443.019 472.648 451.948C473.954 470.148 475.261 488.346 476.567 506.541C479.204 542.946 482.156 579.341 485.006 615.729C485.784 625.658 486.594 635.584 487.436 645.507C488.305 655.727 488.193 666.633 491.002 676.532C492.553 682.001 499.555 680.237 500.209 675.285C501.37 666.498 500.023 657.308 499.509 648.485C498.968 639.219 498.403 629.954 497.814 620.692C496.648 602.822 495.434 584.955 494.17 567.092C491.629 531.033 489.424 494.953 486.837 458.897C486.125 448.964 485.351 439.038 484.516 429.118C484.075 423.894 483.487 418.805 482.628 413.631C481.779 408.512 481.35 403.155 479.334 398.343C478.011 395.184 473.134 394.407 472.102 398.343H472.1Z" fill="#171717"/>
</g>
<g opacity="0.1">
<path d="M437.992 683.239C440.392 682.36 441.1 680.49 442.313 678.38C443.944 675.589 445.905 673.003 448.154 670.68C450.376 668.362 452.841 666.288 455.506 664.495C457.542 663.107 459.048 662.055 459.236 659.445C459.239 659.076 459.144 658.713 458.96 658.393C458.777 658.073 458.511 657.808 458.191 657.624C453.043 654.743 445.845 662.816 442.891 666.344C439.897 669.917 433.591 677.611 436.141 682.488C436.324 682.8 436.605 683.042 436.94 683.178C437.275 683.314 437.645 683.337 437.994 683.242L437.992 683.239Z" fill="#171717"/>
</g>
<g opacity="0.1">
<path d="M492.487 694.412C494.887 693.767 496.078 691.265 498.009 689.812C499.688 688.405 501.697 687.449 503.848 687.034C506.919 686.69 509.375 684.523 508.923 681.18C508.53 678.28 505.463 675.872 502.475 676.885C498.862 677.96 495.562 679.89 492.852 682.51C490.757 684.678 487.395 689.089 488.682 692.248C488.918 693.027 489.445 693.686 490.153 694.088C490.861 694.49 491.697 694.605 492.487 694.408V694.412Z" fill="#171717"/>
</g>
<g opacity="0.1">
<path d="M517.314 674.067C518.358 670.48 519.471 667.458 522.279 664.838C525.007 662.292 529.125 661.888 531.518 659.099C533.877 656.35 532.779 652.836 529.524 651.544C524.378 649.504 518.036 654.423 514.774 658.053C511.174 662.053 508.399 667.373 508.354 672.853C508.311 678.037 515.881 678.993 517.314 674.065V674.067Z" fill="#171717"/>
</g>
<g opacity="0.1">
<path d="M404.576 675.943C403.569 673.805 401.062 674.026 399.105 673.55C396.341 672.877 393.23 671.22 391.951 668.517C388.966 662.21 395.292 657.954 400.533 656.779C403.884 656.028 406.176 651.243 403.982 648.301C399.236 641.937 401.422 635.496 400.243 628.284C400.129 627.878 399.859 627.532 399.492 627.324C399.124 627.115 398.689 627.06 398.282 627.171C387.657 631.196 390.118 646.19 394.015 654.127L399 645.442C387.485 643.986 377.821 657.149 380.477 667.879C382.657 676.689 394.639 685.079 403.334 679.854C403.8 679.586 404.187 679.198 404.454 678.732C404.722 678.265 404.861 677.735 404.857 677.197C404.844 676.765 404.75 676.34 404.578 675.943H404.576Z" fill="#171717"/>
</g>
<g opacity="0.1">
<path d="M378.257 704.843C375.366 710.648 375.798 717.506 371.98 723.01C367.967 728.795 361.418 731.985 354.504 732.653C338.428 734.207 322.562 724.628 312.336 712.915C302.836 702.027 297.467 687.128 299.563 672.655C301.495 659.32 308.619 645.255 319.888 637.577C320.818 637.003 321.586 636.2 322.118 635.245C322.65 634.291 322.93 633.216 322.93 632.123C322.93 631.03 322.65 629.955 322.118 629C321.586 628.046 320.818 627.243 319.888 626.668C307.294 618.068 301.118 603.057 301.244 588.053C301.306 580.707 301.679 573.565 304.987 566.848C308.416 559.883 314.425 554.834 318.132 548.111C319.706 545.257 317.058 541.058 313.632 542.258C304.913 545.311 299.732 553.53 295.879 561.525C291.95 569.683 288.185 578.865 288.16 588.053C288.111 606.782 298.269 624.572 312.233 636.589L313.511 626.668C284.701 641.908 276.192 676.909 289.244 705.633C295.68 719.796 307.387 731.809 321 739.233C335.865 747.333 355.236 751.381 370.884 742.933C378.045 738.886 383.574 732.474 386.522 724.795C389.168 718.046 389.891 707.511 382.168 703.82C381.511 703.45 380.735 703.35 380.005 703.541C379.275 703.732 378.648 704.2 378.256 704.845L378.257 704.843Z" fill="#171717"/>
</g>
<g opacity="0.1">
<path d="M217.952 517.677C216.409 512.977 211.015 512.928 207.206 514.915C202.529 517.354 199.053 522.236 196.966 526.943C194.692 532.009 193.689 537.554 194.044 543.096C194.399 548.638 196.102 554.009 199.005 558.743L207.257 548.009C191.54 545.175 174.908 556.239 175.788 573.33C176.188 581.008 180.928 588.292 188.466 590.63C195.242 592.73 203.277 591.03 206.753 584.414C207.361 583.303 207.592 582.024 207.412 580.77C207.233 579.516 206.651 578.355 205.755 577.459C204.86 576.563 203.698 575.982 202.444 575.802C201.19 575.622 199.912 575.853 198.8 576.461C193.8 579.131 189.276 575.961 190.761 570.267C192.461 563.743 199.343 561.654 205.315 562.367C210.715 563.009 214.584 555.64 211.624 551.367C209.612 548.566 208.273 545.339 207.709 541.937C207.145 538.535 207.372 535.048 208.373 531.748C209.325 528.508 211.264 525.646 213.92 523.561C215.52 522.324 218.814 520.295 217.952 517.673V517.677Z" fill="#171717"/>
</g>
<g opacity="0.1">
<path d="M238.557 613.394C230.066 611.158 224.583 622.53 224.468 629.539C224.321 638.539 232.694 648.233 242.042 647.669C243.629 647.618 245.146 647.006 246.325 645.942C247.504 644.878 248.267 643.43 248.48 641.857C248.693 640.283 248.342 638.685 247.488 637.346C246.634 636.007 245.334 635.014 243.818 634.543C240.242 633.335 236.034 632.535 235.313 628.071C234.583 623.555 238.653 621.271 240.238 617.526C240.925 615.904 240.493 613.904 238.557 613.394V613.394Z" fill="#171717"/>
</g>
<g opacity="0.1">
<path d="M195.819 776.146C181.735 777.185 171.786 791.301 173.284 804.927C174.942 820.016 188.884 831.234 203.738 831.322L200.278 818.548C182.17 826.192 181.844 852.658 199.572 860.974C208.162 865.004 218.447 863.459 226.28 858.374C234.768 852.863 240.112 844.156 244.68 835.367L230.6 831.551C230.007 847.865 247.329 857.62 261.856 853.01C269.634 850.542 275.336 845.21 280.119 838.803C284.634 832.755 288.945 826.483 290.06 818.857C290.515 815.747 286.868 812.665 284.26 815.482C280.96 819.05 277.178 822.182 273.554 825.416C270.044 828.547 266.713 832.216 262.916 834.976C257.979 838.563 245.583 841.243 245.711 831.551C245.805 824.351 235.003 820.866 231.629 827.737C227.351 836.451 220.648 850.091 208.907 849.237C206.697 849.052 204.617 848.113 203.015 846.579C201.413 845.044 200.387 843.007 200.107 840.806C199.607 835.894 203.012 832.242 207.192 830.384C213.605 827.534 210.128 817.527 203.732 817.61C195.27 817.72 187.304 811.772 185.781 803.233C184.155 794.123 191.296 788.641 197.99 784.18C201.271 781.994 200.382 775.807 195.813 776.144L195.819 776.146Z" fill="#171717"/>
</g>
<g opacity="0.1">
<path d="M683.72 541.742C686.27 535.242 693.714 528.579 698.705 537.056C702.505 543.508 698.118 551.078 695.023 556.87C692.765 561.095 697.583 567.007 702.059 563.905C707.331 560.252 711.702 566.132 709.706 571.33C706.972 578.448 699.559 575.382 694.49 578.247C693.965 578.565 693.519 578.997 693.184 579.511C692.85 580.025 692.635 580.608 692.557 581.217C692.478 581.825 692.538 582.443 692.731 583.025C692.925 583.608 693.247 584.139 693.674 584.579C697.774 589.048 706.174 587.151 710.966 584.62C713.81 583.15 716.232 580.978 717.999 578.308C719.767 575.639 720.823 572.562 721.066 569.369C721.839 556.946 707.573 547.223 696.873 555.025L703.909 562.061C709.27 551.421 714.656 535.972 702.565 527.524C692.088 520.204 682.437 530.95 679.928 540.695C679.282 543.202 682.818 544.053 683.728 541.742H683.72Z" fill="#171717"/>
</g>
<g opacity="0.1">
<path d="M719.979 639.84C717.234 649.897 734.848 650.909 740.701 648.973C748.681 646.335 757.591 633.082 750.127 625.704C749.763 625.352 749.325 625.086 748.844 624.927C748.364 624.767 747.853 624.718 747.351 624.782C746.849 624.847 746.368 625.024 745.944 625.3C745.519 625.576 745.162 625.944 744.9 626.377C741.774 631.312 742.34 637.162 736.119 639.99C730.707 642.45 726.414 637.456 721.19 638.629C720.9 638.708 720.636 638.861 720.423 639.074C720.211 639.286 720.058 639.55 719.979 639.84Z" fill="#171717"/>
</g>
<g opacity="0.1">
<path d="M704.64 693.992C705.277 700.102 707.84 704.592 713.704 707.086C716.779 708.363 720.131 708.824 723.436 708.426C726.742 708.028 729.889 706.784 732.572 704.814L725.646 702C728.513 710.954 723.446 722.671 733.493 728.7C743.432 734.67 751.418 724.717 754.161 716.2C756.285 709.606 746.129 706.941 743.861 713.361C742.348 717.642 738.061 722.748 736.327 715.676C735.021 710.354 736.411 704.839 734.738 699.485C733.9 696.802 730.405 694.837 727.813 696.667C721.113 701.396 713.268 698.55 708.481 692.396C707.316 690.896 704.445 692.122 704.64 693.987V693.992Z" fill="#171717"/>
</g>
</g>
<defs>
<linearGradient id="paint0_linear_245_123" x1="592.798" y1="271.059" x2="592.798" y2="454.362" gradientUnits="userSpaceOnUse">
<stop stop-color="#FFB800"/>
<stop offset="1" stop-color="#FF7F0A"/>
</linearGradient>
<linearGradient id="paint1_linear_245_123" x1="508.32" y1="269.884" x2="508.32" y2="448.737" gradientUnits="userSpaceOnUse">
<stop stop-color="#FFB800"/>
<stop offset="1" stop-color="#FF7F0A"/>
</linearGradient>
<linearGradient id="paint2_linear_245_123" x1="523.265" y1="39.9331" x2="523.265" y2="129.359" gradientUnits="userSpaceOnUse">
<stop stop-color="#FFB800"/>
<stop offset="1" stop-color="#FF7F0A"/>
</linearGradient>
<linearGradient id="paint3_linear_245_123" x1="594.118" y1="687.768" x2="594.118" y2="821.628" gradientUnits="userSpaceOnUse">
<stop stop-color="#FFB800"/>
<stop offset="1" stop-color="#FF7F0A"/>
</linearGradient>
<linearGradient id="paint4_linear_245_123" x1="613.599" y1="687.698" x2="613.599" y2="687.909" gradientUnits="userSpaceOnUse">
<stop stop-color="#FFB800"/>
<stop offset="1" stop-color="#FF7F0A"/>
</linearGradient>
<linearGradient id="paint5_linear_245_123" x1="422.484" y1="256.972" x2="422.484" y2="439.235" gradientUnits="userSpaceOnUse">
<stop stop-color="#FFB800"/>
<stop offset="1" stop-color="#FF7F0A"/>
</linearGradient>
<linearGradient id="paint6_linear_245_123" x1="432.971" y1="761.076" x2="432.971" y2="919.935" gradientUnits="userSpaceOnUse">
<stop stop-color="#FFB800"/>
<stop offset="1" stop-color="#FF7F0A"/>
</linearGradient>
<linearGradient id="paint7_linear_245_123" x1="391.801" y1="704.33" x2="391.801" y2="815.934" gradientUnits="userSpaceOnUse">
<stop stop-color="#FFB800"/>
<stop offset="1" stop-color="#FF7F0A"/>
</linearGradient>
<clipPath id="clip0_245_123">
<rect width="618" height="884" fill="white" transform="translate(171 38)"/>
</clipPath>
</defs>
</svg>
