<svg width="960" height="960" viewBox="0 0 960 960" fill="none" xmlns="http://www.w3.org/2000/svg">
<path fill-rule="evenodd" clip-rule="evenodd" d="M699.443 750.441L605.392 755.322L605.367 754.934C612.663 736.647 631.161 723.385 650.822 722.362C670.483 721.339 690.264 732.595 699.422 750.022L699.443 750.441ZM586.767 756.291C569.084 802.236 550.552 848.056 510.992 877.356C509.669 878.333 508.339 879.284 506.991 880.195L507.799 881.372C581.722 916.471 673.91 917.33 746.892 880.308C797.838 854.456 841.142 810.218 857.31 755.42C873.478 700.622 858.712 635.694 814.629 599.337C785.871 575.617 748.306 565.68 711.529 559.602C671.6 552.779 631.083 550.013 590.596 551.344L590.156 550.986V550.699L589.337 550.689C577.618 564.58 567.461 579.717 559.048 595.827C553.256 572.823 547.352 549.533 535.932 528.74L535.942 528.484C529.792 528.293 523.642 528.095 517.492 527.89L517.461 528.75C521.347 605.408 522.88 682.08 522.061 758.766L522.112 759.656L586.767 756.291ZM590.563 653.617L590.553 653.849C589.253 663.249 587.953 672.759 588.803 682.214C589.653 691.669 592.825 701.214 599.403 708.063C605.981 714.912 616.339 718.531 625.344 715.523C630.982 713.64 635.628 709.383 638.862 704.389C642.096 699.395 644.029 693.665 645.482 687.904C648.193 677.154 649.372 666.074 648.982 654.995L648.307 655.015C646.517 654.973 644.728 654.929 642.94 654.885C641.2 654.842 639.462 654.799 637.726 654.759C638.012 651.342 638.258 647.903 638.463 644.475C638.671 642.806 638.546 641.112 638.094 639.492C637.855 638.683 637.39 637.96 636.754 637.407C636.117 636.854 635.336 636.494 634.502 636.371C632.067 636.207 630.327 638.683 629.447 640.965C627.89 645.016 627.353 649.387 627.882 653.695L627.861 654.514C615.428 654.22 602.995 653.921 590.563 653.617ZM762.189 582.47C761.395 582.171 760.51 582.572 760.211 583.365C759.912 584.158 760.313 585.044 761.106 585.343C799.133 599.667 829.516 632.915 840.368 672.077C851.22 711.239 842.279 755.383 817.044 787.236C816.518 787.901 816.63 788.866 817.294 789.392C817.959 789.919 818.924 789.807 819.451 789.142C845.294 756.521 854.441 711.364 843.327 671.257C832.213 631.151 801.132 597.14 762.189 582.47Z" fill="url(#paint0_linear_248_1700)"/>
<path d="M637.723 654.763C641.243 654.845 644.773 654.937 648.304 655.019L648.979 654.999C649.369 666.079 648.19 677.158 645.479 687.908C644.026 693.669 642.092 699.399 638.859 704.393C635.626 709.387 630.979 713.644 625.341 715.527C616.341 718.535 605.98 714.913 599.4 708.067C592.82 701.221 589.638 691.674 588.8 682.218C587.962 672.762 589.25 663.257 590.55 653.853L590.56 653.617C602.993 653.914 615.426 654.214 627.86 654.517L637.723 654.763Z" fill="url(#paint1_linear_248_1700)"/>
<path d="M627.88 653.699C627.35 649.391 627.887 645.02 629.445 640.969C630.325 638.687 632.065 636.211 634.5 636.375C635.333 636.499 636.115 636.858 636.751 637.411C637.388 637.964 637.853 638.687 638.092 639.496C638.543 641.116 638.668 642.81 638.461 644.479C638.261 647.907 638.01 651.346 637.724 654.763L627.859 654.518L627.88 653.699Z" fill="#171717"/>
<path d="M589.341 550.684C577.622 564.575 567.465 579.712 559.052 595.822C553.26 572.822 547.353 549.528 535.937 528.735L535.947 528.479C538.863 528.579 541.79 528.673 544.706 528.765L562.716 529.349C569.736 529.584 577.175 529.942 582.966 533.912C588.707 537.842 590.253 540.451 590.161 550.694L589.341 550.684Z" fill="#171717"/>
<path d="M463.651 565.512C457.174 559.781 449.243 555.35 440.651 554.46L440.528 554.491C437.949 544.954 444.959 534.791 453.943 530.546C461.27 527.077 469.508 526.555 477.684 526.646C479.7 526.667 481.705 526.728 483.69 526.789C490.567 527.014 497.44 527.235 504.31 527.454L504.3 527.761C494.415 545.976 487.446 565.613 480.518 585.161C475.348 578.221 470.139 571.232 463.651 565.512Z" fill="#171717"/>
<path d="M430.159 813.323C430.373 814.813 430.919 816.236 431.757 817.486C432.594 818.737 433.702 819.783 434.999 820.547C438.284 822.297 442.459 821.57 445.641 819.626C448.823 817.682 451.208 814.714 453.459 811.757C463.559 798.526 472.503 784.302 478.745 768.881C479.705 766.577 480.488 764.204 481.088 761.781C482.357 756.45 482.419 750.965 479.369 746.596C475.569 741.172 468.369 739.545 461.82 738.614C443.697 736.046 425.073 735.614 407.22 739.627C389.367 743.64 370.9 753.656 358.651 767.256L358.692 768.136L395.192 766.243C390.638 775.401 386.084 784.563 381.531 793.729C380.037 796.747 378.512 799.829 378.052 803.163C377.592 806.497 378.39 810.204 380.897 812.455C383.383 814.686 387.118 815.075 390.372 814.287C393.626 813.499 396.533 811.677 399.372 809.887L400.436 810.235C399.906 811.75 399.793 813.38 400.109 814.953C401.163 819.312 406.361 821.253 410.843 821.253C414.22 821.246 417.562 820.562 420.67 819.242C423.779 817.922 426.592 815.993 428.943 813.568L430.159 813.323ZM192.427 799.089C179.411 757.021 189.184 709.817 213.037 672.804C236.89 635.791 273.646 608.326 313.698 590.03C353.75 571.734 394.17 555.79 440.658 554.941C440.617 554.788 440.566 554.641 440.525 554.491L440.648 554.46C449.248 555.35 457.174 559.781 463.648 565.512C470.122 571.243 475.348 578.221 480.512 585.159C487.44 565.614 494.412 545.977 504.294 527.759L504.304 527.452C508.704 527.606 513.094 527.739 517.494 527.882L517.463 528.742C521.342 605.346 522.876 682.018 522.063 758.758L522.114 759.648L586.766 756.292C569.081 802.24 550.549 848.064 510.992 877.356C509.672 878.329 508.342 879.28 506.992 880.191C478.636 899.623 443.619 907.544 409.267 910.47C365.45 914.205 320.159 910.337 280.025 892.37C239.891 874.403 205.423 841.095 192.427 799.089Z" fill="url(#paint2_linear_248_1700)"/>
<path d="M523.738 450.504C528.456 449.704 533.17 448.899 537.88 448.089C537.205 429.803 536.523 411.514 535.833 393.22C535.69 389.42 535.864 384.972 538.965 382.793C540.95 381.401 543.57 381.411 546.005 381.472C555.43 381.718 564.851 381.967 574.268 382.219" stroke="#171717" stroke-width="4" stroke-linecap="round" stroke-linejoin="round"/>
<path d="M556.208 405.556V396.156" stroke="#171717" stroke-width="3.07" stroke-linecap="round" stroke-linejoin="round"/>
<path d="M509.73 403.402C509.546 400.506 509.362 397.613 509.178 394.724" stroke="#171717" stroke-width="3.07" stroke-linecap="round" stroke-linejoin="round"/>
<path d="M521.406 473.692C518.272 474.553 514.953 474.473 511.865 473.462C508.776 472.45 506.053 470.552 504.036 468.004C502.018 465.455 500.796 462.37 500.52 459.131C500.244 455.893 500.927 452.645 502.485 449.792" stroke="#171717" stroke-width="3.07" stroke-linecap="round" stroke-linejoin="round"/>
<path d="M477.691 524.723L478.612 455.623C478.858 437.593 479.1 419.562 479.338 401.532C479.492 389.703 480.362 376.308 489.428 368.715C495.773 363.415 504.552 362.401 512.79 361.777C538.2 359.855 563.704 359.493 589.158 360.692L592.33 360.846" stroke="#171717" stroke-width="4" stroke-linecap="round" stroke-linejoin="round"/>
<path d="M544.736 527.803C541.983 519.034 545.236 509.394 550.374 501.771C555.512 494.148 562.398 487.905 568.108 480.711C580.838 464.656 587.223 444.323 589.577 423.97C589.669 423.161 589.761 422.363 589.833 421.555C591.818 401.989 590.433 382.23 589.065 362.603" stroke="#171717" stroke-width="4" stroke-linecap="round" stroke-linejoin="round"/>
<path d="M620.614 312.963C622.223 311.195 624.29 309.908 626.585 309.243C628.881 308.578 631.316 308.562 633.62 309.197C640.19 311.223 644.406 318.253 644.508 325.12C644.61 331.987 641.193 338.545 636.557 343.62C631.921 348.695 626.099 352.512 620.348 356.268C626.662 352.922 635.176 355.705 639.148 361.64C643.12 367.575 642.771 375.802 639.22 381.993C635.669 388.184 629.292 392.456 622.466 394.55C630.96 402.327 630.966 417.492 622.487 425.29C614.008 433.088 597.887 430.775 590.836 421.667" stroke="#171717" stroke-width="3.07" stroke-linecap="round" stroke-linejoin="round"/>
<path d="M620.614 312.963C619.958 314.863 619.114 316.693 618.097 318.427C618.342 316.387 619.222 314.475 620.614 312.963Z" stroke="#171717" stroke-width="3.07" stroke-linecap="round" stroke-linejoin="round"/>
<path d="M592.821 294.707C593.797 291.96 595.617 289.593 598.022 287.946C600.427 286.299 603.292 285.456 606.205 285.539C613.194 285.897 619.252 291.545 621.248 298.248C622.575 303.099 622.353 308.244 620.613 312.963" stroke="#171717" stroke-width="3.07" stroke-linecap="round" stroke-linejoin="round"/>
<path d="M592.822 294.707C592.792 295.852 592.624 296.99 592.322 298.095C592.296 296.946 592.465 295.8 592.822 294.707V294.707Z" stroke="#171717" stroke-width="3.07" stroke-linecap="round" stroke-linejoin="round"/>
<path d="M477.374 455.6C471.152 465.628 455.844 468.473 446.429 461.361C437.014 454.249 435.572 438.736 443.523 430.007C433.045 426.825 428.45 413.553 431.223 402.951C433.996 392.349 442.039 384.041 450.103 376.632C438.294 372.887 430.548 359.359 433.303 347.274C436.058 335.189 448.878 326.348 461.147 328.067C452.654 322.173 451.547 308.829 457.586 300.438C463.625 292.047 475.023 288.609 485.236 290.215C495.449 291.821 504.545 297.777 511.944 305.022C507.431 297.931 510.982 287.647 518.134 283.257C525.286 278.867 534.722 279.593 542.274 283.277C549.826 286.961 555.781 293.203 561.133 299.677C557.327 289.996 565.233 277.727 575.623 277.195C584.863 276.734 593.08 285.678 592.823 294.703" stroke="#171717" stroke-width="3.07" stroke-linecap="round" stroke-linejoin="round"/>
<path d="M590.16 550.981V550.694C590.252 540.451 588.707 537.842 582.966 533.912C577.175 529.942 569.735 529.584 562.715 529.349L544.705 528.765C541.789 528.673 538.862 528.581 535.946 528.479C529.796 528.284 523.646 528.086 517.496 527.885C513.096 527.742 508.706 527.609 504.306 527.455C497.429 527.241 490.556 527.02 483.686 526.79C481.701 526.729 479.696 526.668 477.68 526.647C469.504 526.555 461.266 527.077 453.939 530.547C444.955 534.794 437.945 544.955 440.524 554.492C440.565 554.645 440.616 554.792 440.657 554.942C394.169 555.791 353.757 571.724 313.697 590.031C273.637 608.338 236.891 635.781 213.036 672.804C189.181 709.827 179.41 757.021 192.426 799.089C205.426 841.095 239.887 874.413 280.02 892.372C320.153 910.331 365.445 914.209 409.262 910.472C443.614 907.546 478.631 899.625 506.987 880.193C508.338 879.282 509.668 878.331 510.987 877.358C550.547 848.058 569.079 802.238 586.762 756.293" stroke="#171717" stroke-width="4" stroke-linecap="round" stroke-linejoin="round"/>
<path d="M590.601 551.339C631.087 550.008 671.604 552.775 711.534 559.597C748.311 565.675 785.876 575.612 814.634 599.332C858.717 635.689 873.483 700.617 857.315 755.415C841.147 810.213 797.838 854.456 746.892 880.308C673.91 917.33 581.722 916.471 507.799 881.372" stroke="#171717" stroke-width="4" stroke-linecap="round" stroke-linejoin="round"/>
<path d="M481.077 761.779H481.087L522.111 759.651L586.763 756.295L605.387 755.322L699.438 750.441L705.976 750.104L710.305 649.933" stroke="#171717" stroke-width="4" stroke-linecap="round" stroke-linejoin="round"/>
<path d="M349.625 670.646L344.324 768.882L358.691 768.135L395.192 766.242" stroke="#171717" stroke-width="4" stroke-linecap="round" stroke-linejoin="round"/>
<path d="M358.65 767.256C370.899 753.656 389.359 743.638 407.216 739.627C425.073 735.616 443.696 736.046 461.816 738.614C468.365 739.545 475.569 741.172 479.365 746.596C482.415 750.965 482.353 756.45 481.084 761.781C480.484 764.204 479.701 766.577 478.741 768.881C472.499 784.302 463.555 798.526 453.455 811.757C451.204 814.714 448.81 817.692 445.637 819.626C442.464 821.56 438.28 822.297 434.995 820.547C433.699 819.783 432.591 818.736 431.753 817.486C430.915 816.236 430.369 814.813 430.155 813.323C429.921 812.099 429.859 810.849 429.971 809.608C430.339 805.372 432.335 801.473 434.299 797.697C440.93 784.897 447.568 772.092 454.213 759.283" stroke="#171717" stroke-width="4" stroke-linecap="round" stroke-linejoin="round"/>
<path d="M428.941 813.568C426.59 815.992 423.777 817.921 420.668 819.241C417.559 820.561 414.218 821.245 410.841 821.253C406.359 821.253 401.161 819.309 400.107 814.953C399.791 813.379 399.904 811.75 400.434 810.235C400.749 809.241 401.116 808.264 401.534 807.309C408.69 790.294 416.934 773.757 426.216 757.802" stroke="#171717" stroke-width="4" stroke-linecap="round" stroke-linejoin="round"/>
<path d="M399.367 809.884C396.533 811.675 393.626 813.484 390.367 814.284C387.108 815.084 383.379 814.684 380.893 812.452C378.386 810.201 377.593 806.507 378.048 803.16C378.503 799.813 380.032 796.744 381.526 793.726C386.08 784.567 390.634 775.405 395.187 766.24C396.579 763.446 397.961 760.663 399.353 757.869" stroke="#171717" stroke-width="4" stroke-linecap="round" stroke-linejoin="round"/>
<path d="M605.366 754.934C612.666 736.647 631.166 723.396 650.821 722.362C670.476 721.328 690.259 732.595 699.421 750.022" stroke="#171717" stroke-width="4" stroke-linecap="round" stroke-linejoin="round"/>
<path d="M440.647 554.456C449.247 555.346 457.173 559.777 463.647 565.508C470.121 571.239 475.347 578.217 480.511 585.155C487.439 565.61 494.411 545.973 504.293 527.755" stroke="#171717" stroke-width="3.07" stroke-linecap="round" stroke-linejoin="round"/>
<path d="M535.937 528.735C547.357 549.528 553.26 572.818 559.052 595.822C567.465 579.712 577.622 564.576 589.341 550.684" stroke="#171717" stroke-width="3.07" stroke-linecap="round" stroke-linejoin="round"/>
<path d="M517.466 528.745C521.345 605.349 522.878 682.021 522.066 758.761" stroke="#171717" stroke-width="4" stroke-linecap="round" stroke-linejoin="round"/>
<path d="M590.55 653.856C589.25 663.256 587.95 672.766 588.8 682.221C589.65 691.676 592.822 701.221 599.4 708.07C605.978 714.919 616.336 718.538 625.341 715.53C630.979 713.647 635.625 709.39 638.859 704.396C642.093 699.402 644.026 693.672 645.479 687.911C648.19 677.161 649.369 666.082 648.979 655.002C648.979 654.92 648.969 654.838 648.969 654.756" stroke="#171717" stroke-width="3.07" stroke-linecap="round" stroke-linejoin="round"/>
<path d="M589.444 653.587L590.559 653.617C602.992 653.914 615.425 654.214 627.859 654.517L637.724 654.762C641.244 654.844 644.774 654.936 648.305 655.018" stroke="#171717" stroke-width="3.07" stroke-linecap="round" stroke-linejoin="round"/>
<path d="M633.456 689.422C635.328 677.941 636.751 666.388 637.724 654.763C638.01 651.346 638.256 647.907 638.461 644.479C638.668 642.81 638.543 641.116 638.092 639.496C637.853 638.687 637.388 637.964 636.751 637.411C636.115 636.858 635.333 636.499 634.5 636.375C632.065 636.211 630.325 638.687 629.445 640.969C627.887 645.02 627.35 649.391 627.88 653.699C628.197 653.599 628.514 653.505 628.831 653.399" stroke="#171717" stroke-width="4" stroke-linecap="round" stroke-linejoin="round"/>
<path d="M794.092 700.496L805.166 690.863" stroke="#171717" stroke-width="2.784" stroke-linecap="round" stroke-linejoin="round"/>
<path d="M803.96 701.171L796.109 690.804" stroke="#171717" stroke-width="2.784" stroke-linecap="round" stroke-linejoin="round"/>
<path d="M684.276 663.015C680.652 661.653 677.492 659.284 675.169 656.187" stroke="#171717" stroke-width="2.784" stroke-linecap="round" stroke-linejoin="round"/>
<path d="M674.73 664.431L682.902 654.306" stroke="#171717" stroke-width="2.784" stroke-linecap="round" stroke-linejoin="round"/>
<path d="M562.026 624.935L573.282 614.414L572.589 614.782" stroke="#171717" stroke-width="2.784" stroke-linecap="round" stroke-linejoin="round"/>
<path d="M570.176 627.305C568.677 622.812 566.211 618.703 562.953 615.266" stroke="#171717" stroke-width="2.784" stroke-linecap="round" stroke-linejoin="round"/>
<path d="M463.685 692.279C465.221 689.282 467.59 686.793 470.509 685.112" stroke="#171717" stroke-width="2.784" stroke-linecap="round" stroke-linejoin="round"/>
<path d="M469.436 693.348L463.543 685.248" stroke="#171717" stroke-width="2.784" stroke-linecap="round" stroke-linejoin="round"/>
<path d="M377.007 621.498C379.358 615.747 382.775 610.493 387.079 606.012" stroke="#171717" stroke-width="2.784" stroke-linecap="round" stroke-linejoin="round"/>
<path d="M385.991 619.824L374.283 608.424" stroke="#171717" stroke-width="2.784" stroke-linecap="round" stroke-linejoin="round"/>
<path d="M319.237 741.005L312.028 734.249" stroke="#171717" stroke-width="2.784" stroke-linecap="round" stroke-linejoin="round"/>
<path d="M309.657 744.803L318.807 732.282" stroke="#171717" stroke-width="2.784" stroke-linecap="round" stroke-linejoin="round"/>
<path d="M315.437 862.301C312.987 866.728 309.719 870.65 305.806 873.858" stroke="#171717" stroke-width="2.784" stroke-linecap="round" stroke-linejoin="round"/>
<path d="M314.132 873.276L308.05 864.827" stroke="#171717" stroke-width="2.784" stroke-linecap="round" stroke-linejoin="round"/>
<path d="M507.692 818.406L501.251 808.306C501.326 808.286 501.405 808.289 501.478 808.316C501.551 808.343 501.613 808.392 501.657 808.456C501.701 808.521 501.723 808.597 501.721 808.675C501.72 808.752 501.694 808.827 501.647 808.89C501.6 808.952 501.536 808.998 501.462 809.021C501.388 809.045 501.308 809.045 501.234 809.021C501.16 808.997 501.095 808.951 501.049 808.888C501.003 808.826 500.977 808.751 500.976 808.673" stroke="#171717" stroke-width="2.784" stroke-linecap="round" stroke-linejoin="round"/>
<path d="M498.514 818.086L507.647 808.92" stroke="#171717" stroke-width="2.784" stroke-linecap="round" stroke-linejoin="round"/>
<path d="M677.536 810.803L670.336 804.033" stroke="#171717" stroke-width="2.784" stroke-linecap="round" stroke-linejoin="round"/>
<path d="M669.857 812.701L676.598 804.515" stroke="#171717" stroke-width="2.784" stroke-linecap="round" stroke-linejoin="round"/>
<path d="M258.992 690.485L249.604 683.618" stroke="#171717" stroke-width="2.784" stroke-linecap="round" stroke-linejoin="round"/>
<path d="M250.353 692.701L256.803 681.115" stroke="#171717" stroke-width="2.784" stroke-linecap="round" stroke-linejoin="round"/>
<path d="M795.951 805.775L788.126 795.57" stroke="#171717" stroke-width="2.784" stroke-linecap="round" stroke-linejoin="round"/>
<path d="M785.872 806.013C790.469 803.3 794.734 800.06 798.582 796.36" stroke="#171717" stroke-width="2.784" stroke-linecap="round" stroke-linejoin="round"/>
<path d="M723.31 596.004L730.051 585.41" stroke="#171717" stroke-width="2.784" stroke-linecap="round" stroke-linejoin="round"/>
<path d="M730.52 595.056L720.309 586.504" stroke="#171717" stroke-width="2.784" stroke-linecap="round" stroke-linejoin="round"/>
<path d="M63.2966 471.032C47.7626 512.956 37.3526 557.582 40.5916 602.172C41.5636 615.562 43.8606 629.163 50.3306 640.926C56.8006 652.689 68.0396 662.439 81.3306 664.338C94.6216 666.237 109.443 658.638 113.297 645.776C117.151 632.914 106.632 617.121 93.2266 617.862C82.9656 618.429 74.7376 627.762 72.6886 637.833C70.6396 647.904 73.5886 658.356 77.8716 667.699C83.4966 679.978 91.3866 691.074 97.7406 702.992C104.095 714.91 108.987 728.192 107.824 741.649C106.661 755.106 98.1526 768.6 85.1426 772.228C72.1326 775.856 56.1076 766.092 56.1916 752.586" stroke="#171717" stroke-width="4" stroke-linecap="round" stroke-linejoin="round"/>
<path d="M915.491 341.223C914.297 374.623 912.755 409.364 896.937 438.802C892.437 447.167 886.637 455.153 878.528 460.102C870.419 465.051 859.662 466.432 851.428 461.697C843.194 456.962 839.058 445.303 844.111 437.263C849.811 428.189 864.204 428.026 872.349 434.989C880.494 441.952 883.209 453.538 882.724 464.243C882.077 478.518 876.682 492.094 871.342 505.343C866.002 518.592 860.576 532.156 859.859 546.426C859.142 560.696 864.004 576.073 875.653 584.348C887.302 592.623 906.153 590.706 913.188 578.268C920.223 565.83 908.088 546.719 894.278 550.379C890.393 551.502 886.963 553.825 884.478 557.016C876.928 566.373 878.319 581.655 887.436 589.495C896.553 597.335 911.87 596.423 919.992 587.557" stroke="#171717" stroke-width="4" stroke-linecap="round" stroke-linejoin="round"/>
<path d="M509.049 243.056L498.124 153.41" stroke="#171717" stroke-width="4" stroke-linecap="round" stroke-linejoin="round"/>
<path d="M473.613 251.047C464.283 246.254 455.702 240.126 448.14 232.856" stroke="#171717" stroke-width="2.784" stroke-linecap="round" stroke-linejoin="round"/>
<path d="M540.906 240.806L548.157 222.759" stroke="#171717" stroke-width="4" stroke-linecap="round" stroke-linejoin="round"/>
<path d="M627.647 193.47C636.88 189.658 638.477 177.07 636.202 167.347C633.927 157.624 629.23 147.899 631.182 138.103C633.226 127.841 642.229 120.281 651.803 116.06C662.303 111.434 674.321 109.841 685.403 112.811C696.485 115.781 706.423 123.593 710.847 134.175C715.271 144.757 713.556 157.943 705.715 166.313C698.258 174.272 686.964 176.967 676.79 180.896C666.616 184.825 655.973 191.804 654.435 202.602" stroke="#171717" stroke-width="4" stroke-linecap="round" stroke-linejoin="round"/>
<path d="M661.67 180.908C666.507 175.208 670.043 168.523 672.033 161.318C669.469 163.397 665.78 165.528 663.162 163.518C660.593 161.545 661.6 157.518 662.848 154.528C662.666 155.305 662.323 156.035 661.841 156.671C661.358 157.307 660.747 157.834 660.048 158.218C659.348 158.602 658.576 158.835 657.781 158.901C656.985 158.967 656.185 158.865 655.432 158.601C654.678 158.337 653.989 157.918 653.408 157.371C652.828 156.823 652.369 156.159 652.062 155.423C651.755 154.686 651.606 153.893 651.625 153.095C651.644 152.298 651.831 151.513 652.174 150.792L647.413 172.892" stroke="#171717" stroke-width="4" stroke-linecap="round" stroke-linejoin="round"/>
<path d="M726.792 427.056C750.071 416.025 771.68 405.618 793.3 391.613C795.506 390.37 797.451 388.712 799.027 386.731C800.472 384.66 801.049 381.782 799.782 379.598C798.524 377.43 795.85 376.512 793.354 376.288C786.669 375.688 780.263 378.778 774.3 381.861C756.9 390.857 739.494 399.294 722.792 409.556" stroke="#171717" stroke-width="4" stroke-linecap="round" stroke-linejoin="round"/>
<path d="M721.916 410.165L703.067 428.618L726.676 427.156" stroke="#171717" stroke-width="4" stroke-linecap="round" stroke-linejoin="round"/>
<path d="M717.292 427.556L713.292 419.556" stroke="#171717" stroke-width="4" stroke-linecap="round" stroke-linejoin="round"/>
<path d="M783.006 396.889L777.218 381.001" stroke="#171717" stroke-width="4" stroke-linecap="round" stroke-linejoin="round"/>
<path d="M756.291 286.367L753.406 269.756" stroke="#171717" stroke-width="4" stroke-linecap="round" stroke-linejoin="round"/>
<path d="M746.869 280.504L762.047 274.027" stroke="#171717" stroke-width="4" stroke-linecap="round" stroke-linejoin="round"/>
<path d="M771.465 273.366L773.304 283.983L772.766 280.611" stroke="#171717" stroke-width="4" stroke-linecap="round" stroke-linejoin="round"/>
<path d="M781.083 277.998L759.375 294.562" stroke="#171717" stroke-width="4" stroke-linecap="round" stroke-linejoin="round"/>
<path d="M757.491 477.908L751.157 465.544" stroke="#171717" stroke-width="4" stroke-linecap="round" stroke-linejoin="round"/>
<path d="M743.346 478.577L764.51 462.977" stroke="#171717" stroke-width="4" stroke-linecap="round" stroke-linejoin="round"/>
<path d="M582.938 180.908L575.715 166.461" stroke="#171717" stroke-width="4" stroke-linecap="round" stroke-linejoin="round"/>
<path d="M571.345 177.962L585.078 169.308" stroke="#171717" stroke-width="4" stroke-linecap="round" stroke-linejoin="round"/>
<path d="M776.534 179.444L762.812 170.05" stroke="#171717" stroke-width="4" stroke-linecap="round" stroke-linejoin="round"/>
<path d="M772.405 168.056L763.166 181.164" stroke="#171717" stroke-width="4" stroke-linecap="round" stroke-linejoin="round"/>
<path d="M279.546 290.423C279.812 295.458 282.677 300.485 287.28 302.542C302.149 309.186 312.697 287.263 303.897 276.457C293.52 263.714 278.852 277.33 279.546 290.423Z" stroke="#171717" stroke-width="4" stroke-linecap="round" stroke-linejoin="round"/>
<path d="M351.758 372.348L343.745 360.838" stroke="#171717" stroke-width="4" stroke-linecap="round" stroke-linejoin="round"/>
<path d="M340.969 372.337L354.702 361.512" stroke="#171717" stroke-width="4" stroke-linecap="round" stroke-linejoin="round"/>
<path d="M209.463 309.521L196.656 299.168" stroke="#171717" stroke-width="4" stroke-linecap="round" stroke-linejoin="round"/>
<path d="M196.513 310.937L205.177 295.043" stroke="#171717" stroke-width="4" stroke-linecap="round" stroke-linejoin="round"/>
<path d="M191.097 845.84C183.606 839.267 177.544 831.226 173.287 822.216C169.029 813.205 166.667 803.417 166.346 793.456" stroke="#171717" stroke-width="4" stroke-linecap="round" stroke-linejoin="round"/>
<path d="M822.72 854.056C838.389 845.76 852.094 834.195 862.906 820.143C873.718 806.091 881.386 789.881 885.39 772.608" stroke="#171717" stroke-width="4" stroke-linecap="round" stroke-linejoin="round"/>
<path d="M157.711 525.101C154.856 522.887 152.55 520.044 150.971 516.793C149.393 513.543 148.585 509.972 148.611 506.359C148.636 502.746 149.494 499.187 151.118 495.959C152.742 492.732 155.088 489.921 157.974 487.747C163.18 483.825 170.032 482.035 174.198 477.023C179.119 471.102 178.823 462.472 177.298 454.923C175.193 444.552 171.281 434.631 165.741 425.614" stroke="#171717" stroke-width="4" stroke-linecap="round" stroke-linejoin="round"/>
<path d="M275.871 472.619C266.603 451.919 257.316 431.159 250.335 409.574C247.752 401.589 245.608 392.398 249.914 385.194C251.114 383.194 252.988 381.355 255.314 381.173C258.294 380.94 260.729 383.406 262.614 385.723C280.514 407.68 291.391 434.389 301.755 460.753" stroke="#171717" stroke-width="4" stroke-linecap="round" stroke-linejoin="round"/>
<path d="M276.292 472.556L301.292 461.556" stroke="#171717" stroke-width="4" stroke-linecap="round" stroke-linejoin="round"/>
<path d="M264.413 420.323C265.496 418.379 266.425 417.526 268.188 416.167C269.701 414.915 272.188 415.499 273.388 417.053C273.937 417.87 274.29 418.802 274.418 419.778C274.546 420.754 274.446 421.746 274.126 422.676C273.877 423.637 273.434 424.537 272.824 425.321C272.215 426.106 271.452 426.757 270.582 427.236C269.699 427.693 268.699 427.871 267.713 427.746C266.727 427.621 265.802 427.199 265.061 426.536C263.491 424.968 263.471 422.333 264.413 420.323Z" stroke="#171717" stroke-width="4" stroke-linecap="round" stroke-linejoin="round"/>
<path d="M264.155 449.102C259.786 456.204 257.393 464.344 257.223 472.681C257.052 481.018 259.112 489.249 263.187 496.524C263.371 491.668 264.524 486.899 266.579 482.495C268.634 478.092 271.548 474.145 275.151 470.885" stroke="#171717" stroke-width="4" stroke-linecap="round" stroke-linejoin="round"/>
<path d="M289.856 430.936C299.788 428.077 310.787 432.548 317.885 440.062C324.983 447.576 328.741 457.65 331.068 467.72C322.485 461.643 312.134 458.572 301.625 458.984" stroke="#171717" stroke-width="4" stroke-linecap="round" stroke-linejoin="round"/>
<path d="M301.015 476.765C295.61 478.596 290.346 480.817 285.264 483.413" stroke="#171717" stroke-width="4" stroke-linecap="round" stroke-linejoin="round"/>
<path d="M285.37 482.84L284.554 525.008L294.131 504.971L306.767 536.251L306.139 508.07C312.414 515.35 319.465 521.924 327.167 527.675L314.235 505.264C322.601 506.23 331.077 505.346 339.064 502.675C331.095 499.358 322.83 496.803 314.38 495.045L325.44 488.107C317.44 484.487 309.458 480.83 301.494 477.137" stroke="#171717" stroke-width="4" stroke-linecap="round" stroke-linejoin="round"/>
<path d="M122.816 536.251L166.345 551.015L196.656 468.03" stroke="#171717" stroke-width="4" stroke-linecap="round" stroke-linejoin="round"/>
<path d="M209.464 166.461L269.115 208.356L274.451 126.6L209.464 166.461Z" stroke="#171717" stroke-width="4" stroke-linecap="round" stroke-linejoin="round"/>
<path d="M519.867 89.895L535.008 48L549.004 82.672L519.867 89.895Z" stroke="#171717" stroke-width="4" stroke-linecap="round" stroke-linejoin="round"/>
<path d="M720.309 258.919L723.148 286.367L754.851 243.054L798.582 269.754" stroke="#171717" stroke-width="4" stroke-linecap="round" stroke-linejoin="round"/>
<path d="M822.72 304.345L854.055 329.707L871.146 294.562L822.72 304.345Z" stroke="#171717" stroke-width="4" stroke-linecap="round" stroke-linejoin="round"/>
<path d="M440.646 198.231L385.993 126.6L331.068 173.635L369.761 240.806L440.646 198.231Z" stroke="#171717" stroke-width="4" stroke-linecap="round" stroke-linejoin="round"/>
<path d="M354.701 183.703L395.193 156.953L382.042 145.514L344.329 173.635L354.701 183.703Z" stroke="#171717" stroke-width="4" stroke-linecap="round" stroke-linejoin="round"/>
<path d="M362.629 192.826L398.745 169.308" stroke="#171717" stroke-width="4" stroke-linecap="round" stroke-linejoin="round"/>
<path d="M372.019 203.3L407.774 180.908" stroke="#171717" stroke-width="4" stroke-linecap="round" stroke-linejoin="round"/>
<path d="M378.881 216.302L414.997 192.826" stroke="#171717" stroke-width="4" stroke-linecap="round" stroke-linejoin="round"/>
<path d="M399.917 518.595L385.993 483.569L414.996 483.413L399.917 518.595Z" stroke="#171717" stroke-width="4" stroke-linecap="round" stroke-linejoin="round"/>
<path d="M626.091 194.588C623.045 204.573 619.048 214.243 614.156 223.465L635.441 235.198L644.841 219.971C646.631 217.071 654.349 208.215 654.003 204.971C653.668 201.834 644.678 199.371 642.003 198.416C636.852 196.571 631.518 195.288 626.091 194.588V194.588Z" stroke="#171717" stroke-width="4" stroke-linecap="round" stroke-linejoin="round"/>
<path d="M648.057 215.156C641.177 209.464 633.466 204.858 625.191 201.499" stroke="#171717" stroke-width="2.784" stroke-linecap="round" stroke-linejoin="round"/>
<path d="M640.331 224.639L622.443 206.772" stroke="#171717" stroke-width="2.784" stroke-linecap="round" stroke-linejoin="round"/>
<path d="M636.18 232.07C630.034 226.659 624.36 220.736 619.218 214.364" stroke="#171717" stroke-width="2.784" stroke-linecap="round" stroke-linejoin="round"/>
<path d="M723.017 133.801L733.863 130.221" stroke="#171717" stroke-width="2.784" stroke-linecap="round" stroke-linejoin="round"/>
<path d="M702.162 107.971L713.675 81.3711V83.3991" stroke="#171717" stroke-width="2.784" stroke-linecap="round" stroke-linejoin="round"/>
<path d="M658.13 102.174C658.117 99.0419 657.064 96.0026 655.137 93.5332" stroke="#171717" stroke-width="4" stroke-linecap="round" stroke-linejoin="round"/>
<path d="M625.555 121.677L610.386 111.565" stroke="#171717" stroke-width="4" stroke-linecap="round" stroke-linejoin="round"/>
<path d="M621.222 156.356L612.554 157.8" stroke="#171717" stroke-width="4" stroke-linecap="round" stroke-linejoin="round"/>
<path d="M722.985 161.597L740.758 169.25" stroke="#171717" stroke-width="2.784" stroke-linecap="round" stroke-linejoin="round"/>
<path d="M701.16 182.456L703.308 187.52" stroke="#171717" stroke-width="4" stroke-linecap="round" stroke-linejoin="round"/>
<path d="M681.173 193.91L681.05 219.802C680.933 219.875 680.799 219.916 680.661 219.921C680.524 219.927 680.387 219.897 680.264 219.834C680.142 219.771 680.037 219.677 679.961 219.562C679.885 219.447 679.841 219.315 679.831 219.177" stroke="#171717" stroke-width="4" stroke-linecap="round" stroke-linejoin="round"/>
<path fill-rule="evenodd" clip-rule="evenodd" d="M489.431 368.712C495.776 363.411 504.555 362.398 512.793 361.774C538.202 359.852 563.706 359.49 589.161 360.689L589.069 362.603L589.078 362.74C590.443 382.322 591.817 402.034 589.837 421.555L590.837 421.667C597.888 430.775 614.009 433.088 622.488 425.29C630.967 417.492 630.961 402.327 622.467 394.55C629.293 392.456 635.673 388.18 639.224 381.989C642.775 375.798 643.124 367.571 639.152 361.636C635.18 355.701 626.666 352.918 620.352 356.264C626.103 352.508 631.925 348.691 636.561 343.616C641.197 338.541 644.614 331.983 644.512 325.116C644.41 318.249 640.194 311.219 633.624 309.193C631.319 308.559 628.884 308.575 626.589 309.239C624.293 309.904 622.226 311.192 620.618 312.959C622.357 308.24 622.579 303.095 621.253 298.244C619.257 291.541 613.199 285.893 606.21 285.535C603.296 285.452 600.431 286.295 598.026 287.942C595.622 289.589 593.801 291.956 592.826 294.703C593.083 285.678 584.866 276.734 575.626 277.195C565.236 277.727 557.33 289.996 561.136 299.677C555.784 293.203 549.829 286.961 542.277 283.277C534.725 279.593 525.289 278.867 518.137 283.257C510.985 287.647 507.434 297.931 511.947 305.022C504.548 297.777 495.452 291.821 485.239 290.215C475.026 288.609 463.628 292.047 457.589 300.438C451.55 308.829 452.657 322.173 461.15 328.067C448.881 326.348 436.061 335.189 433.306 347.274C430.551 359.359 438.297 372.887 450.106 376.632C442.042 384.041 433.999 392.349 431.226 402.951C428.453 413.553 433.048 426.825 443.526 430.007C435.575 438.736 437.017 454.249 446.432 461.361C455.847 468.473 471.155 465.628 477.377 455.6L478.615 455.62C478.853 437.589 479.095 419.559 479.341 401.529C479.495 389.7 480.365 376.305 489.431 368.712ZM592.326 298.091C592.628 296.986 592.796 295.848 592.826 294.703C592.469 295.796 592.3 296.941 592.326 298.091ZM618.101 318.423C619.118 316.689 619.961 314.859 620.618 312.959C619.226 314.471 618.345 316.382 618.101 318.423ZM597.918 296.904C597.149 296.545 596.236 296.878 595.878 297.646C595.519 298.414 595.851 299.327 596.619 299.686C605.581 303.868 610.113 315.774 606.2 324.857C605.909 325.532 606.138 326.318 606.745 326.732C607.353 327.146 608.169 327.071 608.691 326.554C612.212 323.061 618.832 323.384 622.548 327.036C626.247 330.672 627.08 336.861 624.985 341.846C622.894 346.824 618.272 350.598 613.01 352.513C612.213 352.803 611.802 353.684 612.092 354.481C612.382 355.277 613.263 355.688 614.059 355.398C619.927 353.263 625.319 348.978 627.816 343.035C630.309 337.1 629.446 329.512 624.7 324.846C621.031 321.241 615.066 320.027 610.293 321.924C612.188 312.146 607.06 301.17 597.918 296.904Z" fill="#171717"/>
<g opacity="0.1">
<path d="M452.957 554.845C398.015 554.863 342.902 571.234 295.314 598.37C252.153 622.981 212.686 658.318 194.725 705.726C185.673 729.626 182.603 755.731 187.01 780.938C191.433 806.229 204.567 828.96 223.05 846.614C259.178 881.12 309.384 900.578 358.331 907.014C386.113 910.62 414.284 909.945 441.862 905.014C455.473 902.616 468.865 899.11 481.905 894.529C495.045 889.901 508.655 884.713 520.005 876.541C523.372 874.117 525.193 870.158 523.419 866.122C521.896 862.657 517.498 859.743 513.576 861.291C502.736 865.568 492.385 870.902 481.455 874.975C449.241 886.977 414.901 892.212 380.575 890.355C334.888 888.084 289.437 873.304 252.214 846.483C233.541 833.028 217.024 815.132 209.338 793.102C201.901 771.79 201.338 747.848 206.75 725.991C218.001 680.549 252.536 645.164 290.867 620.406C339.586 588.937 395.499 571.928 452.955 566.185C460.071 565.473 460.405 554.838 452.955 554.841L452.957 554.845Z" fill="#171717"/>
</g>
<g opacity="0.1">
<path d="M719.897 745.473C722.659 730.453 723.014 714.625 724.143 699.406L725.812 676.906C726.382 669.229 728.076 660.752 726.592 653.176C724.904 644.554 713.045 646.06 710.592 653.176C708.231 660.025 708.917 668.715 708.453 675.927L707.003 698.427C706.049 713.24 704.16 728.597 704.81 743.427C705.169 751.637 718.257 754.396 719.898 745.469L719.897 745.473Z" fill="#171717"/>
</g>
<g opacity="0.1">
<path d="M516.742 881.455C518.842 884.892 520.324 887.413 524.034 889.444C528.116 891.679 532.676 893.006 537.103 894.365C544.855 896.745 552.708 898.812 560.658 900.418C577.096 903.745 593.781 905.704 610.542 906.274C644.141 907.511 677.679 902.507 709.453 891.514C726.978 885.379 744.153 878.384 757.863 865.557C759.716 863.823 757.763 860.957 755.491 861.483C740.3 864.983 725.976 870.8 711.065 875.283C695.755 879.829 680.118 883.191 664.292 885.34C633.544 889.595 601.843 889.507 571.279 883.914C562.756 882.354 554.27 880.47 545.901 878.228C541.584 877.072 537.334 875.593 532.988 874.568C530.674 873.947 528.299 873.582 525.906 873.48C523.448 873.466 521.536 874.537 519.263 875.254C518.645 875.434 518.075 875.752 517.597 876.183C517.119 876.614 516.745 877.148 516.502 877.744C516.26 878.341 516.155 878.984 516.196 879.627C516.238 880.269 516.424 880.894 516.741 881.454L516.742 881.455Z" fill="#171717"/>
</g>
<defs>
<linearGradient id="paint0_linear_248_1700" x1="685.334" y1="527.89" x2="685.334" y2="907.885" gradientUnits="userSpaceOnUse">
<stop stop-color="#FFB800"/>
<stop offset="1" stop-color="#FF7F0A"/>
</linearGradient>
<linearGradient id="paint1_linear_248_1700" x1="618.792" y1="653.617" x2="618.792" y2="716.594" gradientUnits="userSpaceOnUse">
<stop stop-color="#FFB800"/>
<stop offset="1" stop-color="#FF7F0A"/>
</linearGradient>
<linearGradient id="paint2_linear_248_1700" x1="386.698" y1="527.452" x2="386.698" y2="911.763" gradientUnits="userSpaceOnUse">
<stop stop-color="#FFB800"/>
<stop offset="1" stop-color="#FF7F0A"/>
</linearGradient>
</defs>
</svg>
